<?xml version="1.0" standalone="no"?>
<!DOCTYPE svg PUBLIC "-//W3C//DTD SVG 20010904//EN"
 "http://www.w3.org/TR/2001/REC-SVG-20010904/DTD/svg10.dtd">
<svg version="1.0" xmlns="http://www.w3.org/2000/svg"
 width="1920.000000pt" height="812.000000pt" viewBox="0 0 1920.000000 812.000000"
 preserveAspectRatio="xMidYMid meet">

<g transform="translate(0.000000,812.000000) scale(0.100000,-0.100000)"
fill="#000000" stroke="none">
<path d="M3123 8105 c-55 -17 -121 -56 -155 -92 -14 -15 -147 -242 -295 -503
-1074 -1893 -2077 -3571 -2548 -4263 -83 -120 -113 -192 -122 -282 -16 -172
96 -327 269 -372 62 -16 72 -16 150 -1 46 9 265 80 488 158 493 173 930 320
930 313 0 -3 -74 -114 -163 -246 -302 -447 -435 -673 -477 -815 -31 -101 -26
-232 12 -313 70 -153 192 -216 395 -206 146 7 295 56 703 232 639 275 1574
622 2250 835 1211 381 3389 1113 3899 1309 428 165 629 279 727 412 81 110
112 220 95 330 -31 189 -177 321 -426 382 -261 65 -517 87 -1265 107 -486 13
-721 22 -716 27 9 9 356 94 543 132 274 57 490 89 678 102 88 5 183 15 210 21
211 45 319 283 220 484 -48 97 -159 171 -274 181 -120 11 -466 -27 -801 -88
-842 -154 -1514 -388 -1744 -607 -156 -150 -197 -335 -112 -507 26 -52 54 -90
101 -134 204 -191 508 -245 1590 -281 182 -7 404 -15 495 -18 l165 -7 -255
-88 c-975 -338 -2554 -864 -3101 -1032 -709 -218 -1415 -472 -2292 -825 -30
-12 -47 -15 -45 -8 2 6 143 224 314 484 l309 472 500 157 c275 87 744 233
1042 325 298 92 562 179 586 193 56 33 113 97 141 156 16 36 21 65 21 136 0
78 -4 97 -28 146 -31 63 -93 126 -159 160 -32 17 -65 24 -128 27 -85 3 -87 3
-460 -112 -206 -63 -496 -153 -645 -200 -148 -47 -271 -83 -273 -82 -2 2 26
48 61 102 36 55 115 188 175 296 175 313 168 302 221 320 25 9 172 59 326 111
154 53 515 170 803 261 288 91 543 176 566 190 51 30 107 90 138 148 20 37 23
58 23 143 0 89 -3 106 -26 150 -64 121 -173 188 -305 186 -63 0 -127 -18 -550
-151 -264 -83 -634 -203 -823 -266 -249 -83 -357 -114 -392 -114 -26 0 -72 -9
-101 -20 -126 -47 -181 -120 -493 -660 -42 -74 -208 -336 -368 -581 l-291
-446 -405 -128 c-223 -70 -515 -165 -648 -211 -134 -46 -243 -80 -243 -77 0 3
132 222 294 487 161 264 437 724 613 1021 520 878 1468 2534 1494 2611 22 65
16 172 -13 235 -47 103 -121 167 -225 194 -69 18 -124 18 -180 0z"/>
<path d="M13656 6689 c-71 -10 -167 -53 -250 -113 -198 -141 -470 -531 -851
-1216 -59 -107 -109 -197 -111 -199 -2 -2 -43 8 -91 22 -254 76 -469 97 -1268
122 -687 21 -819 27 -833 35 -8 3 70 30 175 58 452 124 862 201 1187 221 124
8 153 13 203 36 276 125 261 518 -23 625 -118 44 -476 11 -979 -91 -678 -136
-1264 -336 -1547 -527 -195 -131 -290 -309 -259 -483 43 -249 262 -402 671
-469 250 -41 461 -55 1110 -75 272 -8 538 -18 590 -21 l95 -6 -330 -120 c-744
-269 -1564 -553 -3330 -1155 -671 -228 -1237 -424 -1258 -435 -54 -27 -118
-94 -147 -153 -34 -69 -36 -217 -4 -285 32 -67 95 -132 160 -165 52 -26 69
-29 149 -29 l90 0 1325 453 c2226 761 2391 815 3090 1006 195 53 400 110 455
125 55 15 102 26 104 24 1 -1 -25 -55 -58 -118 -59 -110 -145 -245 -211 -330
-64 -83 -79 -241 -31 -334 115 -224 391 -265 564 -83 107 113 208 284 445 756
83 165 157 308 164 317 9 12 114 40 363 97 471 107 1034 225 1041 219 2 -3 59
-180 125 -394 409 -1321 734 -2288 1056 -3139 267 -707 295 -760 430 -827 59
-29 77 -33 148 -33 65 0 90 5 135 26 104 49 165 121 193 229 22 84 8 164 -48
285 -183 393 -677 1796 -1069 3040 -140 443 -295 949 -293 952 2 1 171 34 377
72 800 149 1657 293 2334 391 408 59 385 54 459 93 68 35 111 81 143 152 92
201 -31 435 -250 476 -49 9 -107 3 -474 -51 -701 -101 -1527 -240 -2392 -401
-206 -39 -381 -71 -388 -72 -9 -1 -31 55 -68 173 -194 621 -294 910 -359 1042
-54 109 -95 160 -166 208 -90 62 -186 84 -293 69z m83 -1259 c62 -198 111
-364 107 -368 -7 -6 -768 -172 -773 -168 -4 3 198 360 304 536 107 179 229
360 242 360 3 0 57 -162 120 -360z"/>
<path d="M18755 5807 c-290 -95 -320 -495 -48 -632 51 -27 68 -30 148 -30 76
0 98 4 145 26 142 68 222 222 191 372 -33 161 -158 268 -321 274 -42 2 -93 -3
-115 -10z"/>
</g>
</svg>
