<svg xmlns="http://www.w3.org/2000/svg" width="180" height="56"><defs><filter id="a" width="106.7%" height="120%" x="-3.3%" y="-10%" filterUnits="objectBoundingBox"><feOffset dy="2" in="SourceAlpha" result="shadowOffsetOuter1"/><feGaussianBlur in="shadowOffsetOuter1" result="shadowBlurOuter1" stdDeviation="2"/><feColorMatrix in="shadowBlurOuter1" result="shadowMatrixOuter1" values="0 0 0 0 0.549019608 0 0 0 0 0.549019608 0 0 0 0 0.42745098 0 0 0 0.5 0"/><feMerge><feMergeNode in="shadowMatrixOuter1"/><feMergeNode in="SourceGraphic"/></feMerge></filter></defs><g fill="#1D1D1B" fill-rule="evenodd" filter="url(#a)" transform="translate(-90 -14)"><path d="M214.194 38.528h6.318V16h-6.318v22.527ZM192.687 16v6.315h6.695v16.213h6.318V22.315h6.695V16h-19.708Zm-22.875 9.317c0-5.137-4.182-9.317-9.322-9.317h-13.841v22.528h6.318v-3.895h7.306l2.3 3.895h7.338l-3.539-5.99a9.302 9.302 0 0 0 3.44-7.221Zm-16.845-3.002h7.523a3.006 3.006 0 0 1 3.003 3.002 3.006 3.006 0 0 1-3.003 3.001h-7.523v-6.003ZM182.449 16c-6.214 0-11.27 5.053-11.27 11.264 0 6.211 5.056 11.264 11.27 11.264h8.439v-6.315h-8.439a4.956 4.956 0 0 1-4.951-4.949 4.956 4.956 0 0 1 4.951-4.95h8.439V16h-8.439Zm50.911 6.315h8.439V16h-8.439c-6.214 0-11.27 5.053-11.27 11.264 0 6.21 5.056 11.264 11.27 11.264h8.439v-6.315h-8.439a4.956 4.956 0 0 1-4.951-4.95 4.956 4.956 0 0 1 4.951-4.948m-116.4 18.713-8.32 8.315-8.32-8.315H94v22.527h6.319V49.958l8.32 8.315 8.32-8.315v13.597h6.318V41.028h-6.318Zm52.94 13.597-13.604-13.597h-6.318v22.527h6.318V49.958L169.9 63.555h6.318V41.028H169.9v13.597Zm33.325-13.597v22.527h18.698v-6.314h-12.38v-2.005h12.38v-5.89h-12.38v-2.004h12.38v-6.314h-18.698Zm-10.509 0-8.162 8.058v-8.059h-6.318v22.528h6.318V57.96l1.203-1.188 6.702 6.782h8.88l-11.087-11.22 11.455-11.308h-8.99Zm37.808 0 4.411 7.383 4.411-7.383h7.373l-8.617 14.42v8.107h-6.334v-8.107l-8.617-14.42h7.373Zm34.593 0v6.314h-12.649a.897.897 0 0 0-.896.896c0 .494.402.896.896.896h6.319l.242.004c3.866.128 6.972 3.312 6.972 7.206 0 3.976-3.236 7.211-7.214 7.211h-12.649v-6.314h12.649a.897.897 0 0 0 0-1.793h-6.319c-3.978 0-7.215-3.234-7.215-7.21s3.237-7.21 7.215-7.21h12.649Zm-128.49-.446c-6.46 0-11.715 5.253-11.715 11.71 0 6.455 5.256 11.708 11.716 11.708 6.46 0 11.715-5.253 11.715-11.709 0-6.456-5.255-11.709-11.715-11.709m0 17.103a5.402 5.402 0 0 1-5.397-5.394 5.402 5.402 0 0 1 5.397-5.394 5.402 5.402 0 0 1 5.397 5.394 5.402 5.402 0 0 1-5.397 5.394m-7.853-27.237 3.038-6.74 3.038 6.74h-6.076Zm9.718 8.08h6.93L135.267 16h-6.91l-10.155 22.527h6.93l.796-1.765h11.769l.795 1.765Z"/></g></svg>