<?xml version="1.0" standalone="no"?>
<!DOCTYPE svg PUBLIC "-//W3C//DTD SVG 20010904//EN"
 "http://www.w3.org/TR/2001/REC-SVG-20010904/DTD/svg10.dtd">
<svg version="1.0" xmlns="http://www.w3.org/2000/svg"
 width="242.000000pt" height="180.000000pt" viewBox="0 0 242.000000 180.000000"
 preserveAspectRatio="xMidYMid meet">

<g transform="translate(0.000000,180.000000) scale(0.100000,-0.100000)"
fill="#000000" stroke="none">
<path d="M0 1735 l0 -65 1210 0 1210 0 0 65 0 65 -1210 0 -1210 0 0 -65z"/>
<path d="M0 1485 l0 -65 1210 0 1210 0 0 65 0 65 -1210 0 -1210 0 0 -65z"/>
<path d="M12 1262 c4 -12 1192 -1260 1198 -1260 6 0 1194 1248 1198 1260 2 4
-537 8 -1198 8 -661 0 -1200 -4 -1198 -8z"/>
</g>
</svg>
